<?xml version="1.0" encoding="utf-8"?>
<!-- Generator: Adobe Illustrator 25.4.1, SVG Export Plug-In . SVG Version: 6.00 Build 0)  -->
<svg version="1.1" id="Ebene_1" xmlns="http://www.w3.org/2000/svg" xmlns:xlink="http://www.w3.org/1999/xlink" x="0px" y="0px"
	 viewBox="0 0 202.9 64.9" style="enable-background:new 0 0 202.9 64.9;" xml:space="preserve">
<style type="text/css">
	.st0{fill:#EF7D00;}
	.st1{fill:none;stroke:#FFFFFF;stroke-width:2;}
	.st2{fill:#FFFFFF;}
</style>
<polygon class="st0" points="16.2,31 24.5,16.3 16,1.8 0.9,1.8 0.9,59.5 16.2,59.5 24.5,45 "/>
<g id="Gruppe_11" transform="translate(-164.526 -228.249)">
	<path id="Pfad_18" class="st1" d="M223.5,230.2h-33.2l8,14.2l-8,14.9l8,14.3l-7.8,14.3h33V230.2z"/>
	<path id="Pfad_19" class="st2" d="M243.6,256c0-9.5,4.4-19.2,15.1-19.2c10.7,0,15.1,9.7,15.1,19.2c0,9.7-4.1,19.5-15.1,19.5
		S243.6,265.7,243.6,256z M283.7,293.2l-12.2-12.1c8.9-4.2,13.6-13.6,13.6-25.1c0-16.2-9.5-27.6-26.3-27.6
		c-17.1,0-26.3,11.2-26.3,27.6c0,16.4,9.1,27.9,26.3,27.9c0.8,0,1.7,0,2.5-0.2l9.4,9.4L283.7,293.2z"/>
	<path id="Pfad_20" class="st2" d="M319.4,239.1c-3.5-1.5-7.2-2.3-10.9-2.3c-3.7,0-8.5,1.6-8.5,7.5c0,9.3,23.6,5.4,23.6,23.4
		c0,11.8-9.3,16.2-20.2,16.2c-5.8,0-8.5-0.8-13.8-2.1l1-9.7c3.7,2.1,7.9,3.2,12.2,3.3c4.1,0,9.6-2.1,9.6-6.9
		c0-10.2-23.6-6-23.6-23.8c0-12,9.3-16.4,18.8-16.4c4.4-0.1,8.7,0.6,12.9,1.9L319.4,239.1z"/>
	<path id="Pfad_21" class="st2" d="M367.4,282.2c-4,1-8.1,1.6-12.2,1.7c-17.4,0-29.5-8.7-29.5-26.9c0-18.4,11.2-28.7,29.5-28.7
		c4.2,0,8.3,0.8,12.2,2.2l-0.8,9.1c-3.5-2-7.6-3-11.6-2.8c-11.1,0-18,8.5-18,19.5c0,10.9,6.8,19.2,18.2,19.2c4.2,0,9.2-0.9,11.8-2.2
		L367.4,282.2z"/>
	<path id="Pfad_22" class="st2" d="M203,244.5l9.3,0.1l8.5,14.8l-8.5,14.1H203l8.2-14.1L203,244.5z"/>
	<path id="Pfad_23" class="st1" d="M180.7,259.3l8.3-14.6l-8.4-14.6h-15.1v57.7h15.3l8.2-14.5L180.7,259.3z"/>
</g>
</svg>
